<svg id="eVDFZqA5fje1" xmlns="http://www.w3.org/2000/svg" xmlns:xlink="http://www.w3.org/1999/xlink" viewBox="0 0 640 480" shape-rendering="geometricPrecision" text-rendering="geometricPrecision" style="background-color:transparent">
<rect id="eVDFZqA5fje2" width="104.388349" height="195.106796" rx="0" ry="0" transform="matrix(1 0 0 1 260.970875 126.78835)" fill="rgb(210,219,237)" stroke="none" stroke-width="0"/>

<ellipse id="ventana1" rx="15.844662" ry="30.508738" transform="matrix(0.803921 0 0 0.792261 290.485452 180.784475)" fill="rgb(0,0,0)" stroke="none" stroke-width="0"/>

<rect id="eVDFZqA5fje4" width="141.669903" height="38.524272" rx="0" ry="0" transform="matrix(1 0 0 1 239.844661 118.08932)" fill="rgb(210,219,237)" stroke="none" stroke-width="0"/>
<rect id="eVDFZqA5fje5" width="21.126214" height="13.669903" rx="0" ry="0" transform="matrix(1 0 0 1 239.844661 104.419417)" fill="rgb(210,219,237)" stroke="none" stroke-width="0"/>
<rect id="eVDFZqA5fje6" width="21.126214" height="13.669903" rx="0" ry="0" transform="matrix(1 0 0 1 282.097095 104.419429)" fill="rgb(210,219,237)" stroke="none" stroke-width="0"/>
<rect id="eVDFZqA5fje7" width="21.126214" height="13.669903" rx="0" ry="0" transform="matrix(1 0 0 1 239.844661 104.419417)" fill="rgb(210,219,237)" stroke="none" stroke-width="0"/>
<rect id="eVDFZqA5fje8" width="21.126214" height="13.669903" rx="0" ry="0" transform="matrix(1 0 0 1 330.563111 104.419417)" fill="rgb(210,219,237)" stroke="none" stroke-width="0"/>
<rect id="eVDFZqA5fje9" width="21.126214" height="13.669903" rx="0" ry="0" transform="matrix(1 0 0 1 365.359224 104.419429)" fill="rgb(210,219,237)" stroke="none" stroke-width="0"/>
<rect id="eVDFZqA5fje10" width="27.339798" height="26.097088" rx="0" ry="0" transform="matrix(1 0 0 1.952381 306.330101 268.458279)" fill="rgb(0,0,0)" stroke="none" stroke-width="0"/>

<ellipse id="ventana2" rx="15.844662" ry="30.508738" transform="matrix(0.803921 0 0 0.792261 333.669899 180.784475)" fill="rgb(0,0,0)" stroke="none" stroke-width="0"/>









<animate 
           xlink:href="#ventana1"
           attributeName="cx"
           from="50"
           to="450" 
           dur="2s"
           begin="0s"
          repeatCount="indefinite"
      
           fill="freeze" 
           id="circ-anim"/>


           <animate 
           xlink:href="#ventana2"
           attributeName="cx"
           from="50"
           to="450" 
           dur="2s"
           begin="0s"
          repeatCount="indefinite"
          
           fill="freeze" 
           id="circ-anim"/>

















</svg>