<svg id="eVDFZqA5fje1" xmlns="http://www.w3.org/2000/svg" xmlns:xlink="http://www.w3.org/1999/xlink" viewBox="0 0 640 480" shape-rendering="geometricPrecision" text-rendering="geometricPrecision" style="background-color:transparent"><rect id="eVDFZqA5fje2" width="104.388" height="195.107" rx="0" ry="0" transform="translate(260.97 126.788)" fill="#D2DBED" stroke="none" stroke-width="0"/><ellipse id="ventana1" rx="15.845" ry="30.509" transform="matrix(.80392 0 0 .79226 290.485 180.784)" fill="#000" stroke="none" stroke-width="0"/><rect id="eVDFZqA5fje4" width="141.67" height="38.524" rx="0" ry="0" transform="translate(239.845 118.09)" fill="#D2DBED" stroke="none" stroke-width="0"/><rect id="eVDFZqA5fje5" width="21.126" height="13.67" rx="0" ry="0" transform="translate(239.845 104.42)" fill="#D2DBED" stroke="none" stroke-width="0"/><rect id="eVDFZqA5fje6" width="21.126" height="13.67" rx="0" ry="0" transform="translate(282.097 104.42)" fill="#D2DBED" stroke="none" stroke-width="0"/><rect id="eVDFZqA5fje7" width="21.126" height="13.67" rx="0" ry="0" transform="translate(239.845 104.42)" fill="#D2DBED" stroke="none" stroke-width="0"/><rect id="eVDFZqA5fje8" width="21.126" height="13.67" rx="0" ry="0" transform="translate(330.563 104.42)" fill="#D2DBED" stroke="none" stroke-width="0"/><rect id="eVDFZqA5fje9" width="21.126" height="13.67" rx="0" ry="0" transform="translate(365.36 104.42)" fill="#D2DBED" stroke="none" stroke-width="0"/><rect id="eVDFZqA5fje10" width="27.34" height="26.097" rx="0" ry="0" transform="matrix(1 0 0 1.95238 306.33 268.458)" fill="#000" stroke="none" stroke-width="0"/><ellipse id="ventana2" rx="15.845" ry="30.509" transform="matrix(.80392 0 0 .79226 333.67 180.784)" fill="#000" stroke="none" stroke-width="0"/><animate xlink:href="#ventana1" attributeName="cx" from="50" to="450" dur="2s" begin="0s" repeatCount="indefinite" fill="freeze" id="circ-anim"/><animate xlink:href="#ventana2" attributeName="cx" from="50" to="450" dur="2s" begin="0s" repeatCount="indefinite" fill="freeze" id="circ-anim"/></svg>